<svg width="96" height="938" viewBox="0 0 96 938" fill="none" xmlns="http://www.w3.org/2000/svg">
<g clip-path="url(#clip0_1_6)">
<rect width="938" height="96" transform="matrix(0 1 -1 0 96 0)" fill="#3D3D49"/>
<path d="M35.6002 153.532H59.2336C61.1878 153.533 62.9493 154.711 63.6971 156.516C64.4448 158.322 64.0317 160.4 62.6502 161.782L54.7002 169.732C53.8047 170.652 53.2974 171.882 53.2836 173.166V180.482C53.2809 182.003 52.5652 183.434 51.3502 184.349L49.2836 185.916C47.8166 187.016 45.8533 187.191 44.2146 186.368C42.5758 185.545 41.5439 183.866 41.5502 182.032V173.166C41.5363 171.882 41.0291 170.652 40.1336 169.732L32.1836 161.782C30.8021 160.4 30.389 158.322 31.1367 156.516C31.8845 154.711 33.646 153.533 35.6002 153.532Z" fill="black"/>
<path fill-rule="evenodd" clip-rule="evenodd" d="M38.2401 365.532H58.2401C61.922 365.532 64.9067 368.517 64.9067 372.199V392.199C64.9067 395.881 61.922 398.866 58.2401 398.866H38.2401C34.5582 398.866 31.5734 395.881 31.5734 392.199V372.199C31.5734 368.517 34.5582 365.532 38.2401 365.532ZM49.4901 383.449H54.9067C55.5971 383.449 56.1567 382.889 56.1567 382.199C56.1567 381.509 55.5971 380.949 54.9067 380.949H49.4901V375.532C49.4901 374.842 48.9304 374.282 48.2401 374.282C47.5497 374.282 46.9901 374.842 46.9901 375.532V380.949H41.5734C40.8831 380.949 40.3234 381.509 40.3234 382.199C40.3234 382.889 40.8831 383.449 41.5734 383.449H46.9901V388.866C46.9901 389.556 47.5497 390.116 48.2401 390.116C48.9304 390.116 49.4901 389.556 49.4901 388.866V383.449Z" fill="black"/>
<path d="M55.778 292.866H40.3114C38.6267 292.804 37.0573 291.994 36.032 290.656C35.0066 289.318 34.6323 287.592 35.0114 285.949L35.4114 284.049C35.8714 281.477 38.0824 279.587 40.6947 279.532H55.3947C58.007 279.587 60.218 281.477 60.678 284.049L61.078 285.949C61.4571 287.592 61.0828 289.318 60.0575 290.656C59.0321 291.994 57.4628 292.804 55.778 292.866Z" fill="black"/>
<path d="M48.878 276.199H47.2114C43.5295 276.199 40.5447 273.214 40.5447 269.532V265.132C40.5403 263.646 41.1288 262.219 42.18 261.168C43.2312 260.116 44.6581 259.528 46.1447 259.532H49.9447C51.4313 259.528 52.8582 260.116 53.9094 261.168C54.9606 262.219 55.5492 263.646 55.5447 265.132V269.532C55.5447 271.3 54.8423 272.996 53.5921 274.246C52.3418 275.497 50.6462 276.199 48.878 276.199Z" fill="black"/>
<path fill-rule="evenodd" clip-rule="evenodd" d="M34.7696 30.7826C37.1466 25.0748 42.716 21.3504 48.8989 21.3339C55.574 21.2938 61.5115 25.5676 63.5922 31.9102C65.673 38.2528 63.4211 45.2133 58.0195 49.1351C52.6179 53.0569 45.3022 53.043 39.9156 49.1006L35.1322 53.8839C34.6442 54.3713 33.8536 54.3713 33.3656 53.8839C32.8781 53.3959 32.8781 52.6053 33.3656 52.1172L38.0156 47.4672C33.6721 43.067 32.3926 36.4903 34.7696 30.7826ZM52.7667 31.4033C53.1734 32.3763 54.1276 33.0073 55.1822 33.0006C56.609 33.0006 57.7656 31.844 57.7656 30.4172C57.7723 29.3626 57.1413 28.4084 56.1683 28.0017C55.1952 27.595 54.0729 27.8164 53.3271 28.5621C52.5814 29.3079 52.36 30.4302 52.7667 31.4033Z" fill="black"/>
<path d="M51.5642 593.882C51.5642 595.687 50.1016 597.149 48.2975 597.149C46.4934 597.149 45.0308 595.687 45.0308 593.882C45.0308 592.078 46.4934 590.616 48.2975 590.616C50.1016 590.616 51.5642 592.078 51.5642 593.882Z" fill="black"/>
<path fill-rule="evenodd" clip-rule="evenodd" d="M60.6749 588.75C60.9924 589.524 61.7447 590.03 62.5808 590.032C63.1289 590.032 63.6546 590.25 64.0422 590.638C64.4298 591.025 64.6475 591.551 64.6475 592.099V595.666C64.6475 596.807 63.7222 597.732 62.5808 597.732C61.7447 597.735 60.9924 598.241 60.6749 599.014C60.3575 599.788 60.5374 600.677 61.1308 601.266C61.9269 602.081 61.9269 603.383 61.1308 604.199L58.6308 606.699C57.8151 607.495 56.5132 607.495 55.6975 606.699C55.1084 606.106 54.2198 605.926 53.4462 606.243C52.6726 606.561 52.1666 607.313 52.1642 608.149C52.1642 609.29 51.2389 610.216 50.0975 610.216H46.5308C45.3894 610.216 44.4642 609.29 44.4642 608.149C44.4617 607.313 43.9557 606.561 43.1821 606.243C42.4086 605.926 41.5199 606.106 40.9308 606.699C40.1151 607.495 38.8132 607.495 37.9975 606.699L35.4975 604.199C34.7014 603.383 34.7014 602.081 35.4975 601.266C36.0931 600.674 36.272 599.782 35.9503 599.007C35.6285 598.232 34.87 597.728 34.0308 597.732C32.8894 597.732 31.9642 596.807 31.9642 595.666V592.099C31.9642 590.958 32.8894 590.032 34.0308 590.032C34.867 590.03 35.6193 589.524 35.9367 588.75C36.2542 587.977 36.0742 587.088 35.4808 586.499C34.6848 585.683 34.6848 584.381 35.4808 583.566L37.9808 581.066C38.7966 580.27 40.0984 580.27 40.9142 581.066C41.5054 581.661 42.3981 581.84 43.1732 581.518C43.9483 581.197 44.4518 580.438 44.4475 579.599C44.4475 578.458 45.3728 577.532 46.5142 577.532H50.0975C50.6456 577.532 51.1713 577.75 51.5588 578.138C51.9464 578.525 52.1642 579.051 52.1642 579.599C52.1598 580.438 52.6634 581.197 53.4385 581.518C54.2136 581.84 55.1063 581.661 55.6975 581.066C56.5132 580.27 57.8151 580.27 58.6308 581.066L61.1308 583.566C61.9269 584.381 61.9269 585.683 61.1308 586.499C60.5374 587.088 60.3575 587.977 60.6749 588.75ZM42.5308 593.882C42.5308 597.067 45.1126 599.649 48.2975 599.649C51.4823 599.649 54.0642 597.067 54.0642 593.882C54.0642 590.698 51.4823 588.116 48.2975 588.116C45.1126 588.116 42.5308 590.698 42.5308 593.882Z" fill="black"/>
<path d="M50.916 494.232L45.2327 495.449C45.0111 495.473 44.7876 495.473 44.566 495.449C43.7776 495.456 43.0201 495.143 42.466 494.582C41.7539 493.852 41.4592 492.811 41.6827 491.816L42.8993 486.149C43.1578 485.035 43.7373 484.021 44.566 483.232L54.066 473.732H39.066C37.2071 473.71 35.4177 474.438 34.1031 475.753C32.7886 477.067 32.0601 478.857 32.0827 480.716V497.966C32.0827 501.776 35.1719 504.866 38.9827 504.866H56.2493C60.0601 504.866 63.1493 501.776 63.1493 497.966V483.316L53.8493 492.632C53.0485 493.44 52.0289 493.996 50.916 494.232Z" fill="black"/>
<path fill-rule="evenodd" clip-rule="evenodd" d="M56.7993 473.382C58.7282 471.169 62.0772 470.917 64.316 472.816C65.2544 473.896 65.7224 475.307 65.616 476.734C65.5095 478.161 64.8376 479.486 63.7493 480.416L52.6327 491.532C52.0464 492.087 51.3106 492.458 50.516 492.599L44.8827 493.866C44.4192 494.001 43.9191 493.864 43.5884 493.513C43.2578 493.161 43.1525 492.653 43.316 492.199L44.5327 486.532C44.7186 485.76 45.1169 485.056 45.6827 484.499L56.7993 473.382ZM57.4827 481.149L61.216 477.416C61.6749 476.923 61.6614 476.156 61.1854 475.68C60.7094 475.204 59.9419 475.19 59.4493 475.649L55.716 479.382C55.2286 479.87 55.2286 480.661 55.716 481.149C56.204 481.636 56.9946 481.636 57.4827 481.149Z" fill="black"/>
</g>
<defs>
<clipPath id="clip0_1_6">
<rect width="938" height="96" fill="white" transform="matrix(0 1 -1 0 96 0)"/>
</clipPath>
</defs>
</svg>
